<svg width="60" height="85" viewBox="0 0 60 85" fill="none" xmlns="http://www.w3.org/2000/svg">
<g clip-path="url(#clip0_152_242)">
<path d="M59.9509 26.4806L59.7668 66.2814L59.7361 73.9796C59.7054 80.0967 54.1194 85.0319 47.2444 84.9999L12.8999 84.8402C6.04021 84.7923 0.484937 79.8092 0.515629 73.6762L0.730474 26.1771C0.74582 21.226 4.42888 17.0415 9.46238 15.652L9.47773 13.0965V11.7869L51.3264 11.9945L51.3111 15.8596C56.3293 17.313 59.9663 21.5135 59.9509 26.4806Z" fill="url(#paint0_linear_152_242)"/>
<path d="M54.4418 1.77283V2.1242L54.4111 6.27678L54.3804 10.3495V10.8446C54.3804 11.6112 53.7665 12.2341 53.0299 12.2341H52.7077L50.682 12.2182L48.4568 12.2022L46.4311 12.1862L44.2059 12.1702L42.1496 12.1383L39.9244 12.1223L37.8987 12.1064L35.6582 12.0904L33.6172 12.0744L31.392 12.0584L29.3663 12.0265L27.1411 12.0105L25.1154 11.9946L22.8749 11.9786L20.8339 11.9626L18.624 11.9466L16.5984 11.9307L14.3732 11.9147L12.3322 11.8987L10.107 11.8828L8.06594 11.8668H7.74368C7.00707 11.8668 6.40857 11.2279 6.40857 10.4613V10.4453V10.0939L6.46995 1.88463V1.38952C6.46995 0.622886 7.0838 0 7.83575 0H8.15802L12.4242 0.0319429L16.6904 0.0638858L18.7315 0.0798572L20.9566 0.0958286L22.9823 0.1118L27.2332 0.159714L29.4584 0.175686L31.484 0.191657L33.7092 0.207629L35.7349 0.2236L37.9601 0.239572L39.9858 0.255543L42.211 0.271514L44.2366 0.287486L46.4925 0.319429L48.5182 0.3354L50.7434 0.351372L52.7844 0.367343H53.1067C53.8586 0.383315 54.4418 1.0062 54.4418 1.77283Z" fill="url(#paint1_linear_152_242)"/>
<path d="M54.4418 2.14019L54.4111 6.27679L54.3804 10.3495L52.5542 10.3335L50.1295 10.3176L47.9043 10.3016H45.4643L43.2391 10.2856L40.8145 10.2697L38.5893 10.2537H36.1493L33.9241 10.2377L31.484 10.2217L29.2742 10.2058H26.8342L24.609 10.1898L22.169 10.1738L19.9438 10.1579H17.5191L15.2939 10.1419L12.8539 10.1259L10.6287 10.1099H8.20406L6.40857 10.094L6.46995 1.88464L10.7362 1.90061L15.386 1.93256L17.6112 1.94853L20.0512 1.9645H22.2764L26.9263 1.99644L29.3663 2.01242H31.5915L34.0315 2.02839L36.2413 2.04436L38.6814 2.06033H40.9065L43.3466 2.0763L45.5564 2.09227L47.9964 2.10824H50.2216L52.6616 2.12422L54.4418 2.14019Z" fill="url(#paint2_linear_152_242)"/>
<path d="M59.9059 34.8841L0.685425 34.5927L0.561251 61.9198L59.7818 62.2112L59.9059 34.8841Z" fill="#F7F9FC"/>
<path d="M59.9164 34.884L0.695923 34.5927L0.673577 39.5119L59.8941 39.8032L59.9164 34.884Z" fill="#FBFCF7"/>
<path d="M23.7802 45.5803L19.9591 45.5644L19.9744 41.5715L14.7107 41.5555L14.6954 45.5324L10.8742 45.5165L10.8435 50.9787L14.6647 50.9947L14.6493 54.9875L19.913 55.0035L19.9284 51.0266L23.7496 51.0426L23.7802 45.5803Z" fill="url(#paint3_linear_152_242)"/>
<path d="M49.7459 46.906L30.8088 46.8102C30.3024 46.8102 29.8881 46.379 29.8881 45.8519V45.4047C29.8881 44.8776 30.3024 44.4464 30.8088 44.4464L49.7459 44.5422C50.2523 44.5422 50.6666 44.9735 50.6666 45.5005V45.9477C50.6666 46.4748 50.2523 46.906 49.7459 46.906Z" fill="url(#paint4_linear_152_242)"/>
<path opacity="0.5" d="M49.7305 52.7675L30.7934 52.6717C30.287 52.6717 29.8727 52.2405 29.8727 51.7134V51.2662C29.8727 50.7392 30.287 50.3079 30.7934 50.3079L49.7305 50.4038C50.2369 50.4038 50.6513 50.835 50.6513 51.362V51.8092C50.6513 52.3363 50.2369 52.7675 49.7305 52.7675Z" fill="url(#paint5_linear_152_242)"/>
<path opacity="0.08" d="M6.40857 1.7728V2.12417L6.43926 6.27674L6.46995 10.3335V10.8286C6.46995 11.5952 7.0838 12.2181 7.82041 12.2181H8.14268L10.1837 12.2021L12.4089 12.1862L14.4346 12.1702L16.6597 12.1542L18.6854 12.1383L20.9106 12.1223L22.9363 12.1063L25.1615 12.0903L27.2025 12.0744L29.4277 12.0584L31.4534 12.0424L33.6785 12.0265L35.7042 12.0105L37.9294 11.9945L39.9704 11.9785L42.1956 11.9626L44.2213 11.9466L46.4465 11.9306L48.4722 11.9147L50.6973 11.8987L52.7384 11.8827H53.0606C53.7972 11.8827 54.3957 11.2439 54.3957 10.4772V10.4613V10.1099C30.6554 11.18 7.74368 0.36731 7.74368 0.36731C7.00707 0.383281 6.40857 1.00617 6.40857 1.7728Z" fill="#1AA2B5"/>
</g>
<defs>
<linearGradient id="paint0_linear_152_242" x1="0.515629" y1="11.3333" x2="58.3279" y2="87.9995" gradientUnits="userSpaceOnUse">
<stop stop-color="#6CEBFC"/>
<stop offset="1" stop-color="#45DBFC"/>
</linearGradient>
<linearGradient id="paint1_linear_152_242" x1="-604.749" y1="-39.931" x2="-25.7929" y2="-1.18463" gradientUnits="userSpaceOnUse">
<stop stop-color="#B0F4FF"/>
<stop offset="0.0525488" stop-color="#A9F2FF"/>
<stop offset="0.2879" stop-color="#8DE8FE"/>
<stop offset="0.5247" stop-color="#79E1FD"/>
<stop offset="0.7618" stop-color="#6DDDFC"/>
<stop offset="1" stop-color="#69DCFC"/>
</linearGradient>
<linearGradient id="paint2_linear_152_242" x1="6.4152" y1="6.11313" x2="54.4438" y2="6.11313" gradientUnits="userSpaceOnUse">
<stop stop-color="#B0F4FF"/>
<stop offset="0.0525488" stop-color="#A9F2FF"/>
<stop offset="0.2879" stop-color="#8DE8FE"/>
<stop offset="0.5247" stop-color="#79E1FD"/>
<stop offset="0.7618" stop-color="#6DDDFC"/>
<stop offset="1" stop-color="#69DCFC"/>
</linearGradient>
<linearGradient id="paint3_linear_152_242" x1="21.633" y1="43.0953" x2="12.2067" y2="53.5396" gradientUnits="userSpaceOnUse">
<stop stop-color="#6CFCEB"/>
<stop offset="1" stop-color="#45DBFC"/>
</linearGradient>
<linearGradient id="paint4_linear_152_242" x1="50.8493" y1="45.671" x2="28.2713" y2="45.671" gradientUnits="userSpaceOnUse">
<stop stop-color="#6CEBFC"/>
<stop offset="1" stop-color="#45F1FC"/>
</linearGradient>
<linearGradient id="paint5_linear_152_242" x1="29.8713" y1="51.5322" x2="50.6516" y2="51.5322" gradientUnits="userSpaceOnUse">
<stop stop-color="#6CFCF3"/>
<stop offset="1" stop-color="#45FCE6"/>
</linearGradient>
<clipPath id="clip0_152_242">
<rect width="59.4353" height="85" fill="white" transform="translate(0.515625)"/>
</clipPath>
</defs>
</svg>
