<svg width="132" height="115" viewBox="0 0 132 115" fill="none" xmlns="http://www.w3.org/2000/svg">
<path d="M5.22838 10.425C8.11594 10.425 10.4568 8.09121 10.4568 5.21245C10.4568 2.33368 8.11594 0 5.22838 0C2.34082 0 0 2.33368 0 5.21245C0 8.09121 2.34082 10.425 5.22838 10.425Z" fill="#06B6D4" fill-opacity="0.07"/>
<path d="M5.22838 10.425C8.11594 10.425 10.4568 8.09121 10.4568 5.21245C10.4568 2.33368 8.11594 0 5.22838 0C2.34082 0 0 2.33368 0 5.21245C0 8.09121 2.34082 10.425 5.22838 10.425Z" fill="#06B6D4" fill-opacity="0.07"/>
<path d="M35.5094 10.425C38.397 10.425 40.7378 8.09121 40.7378 5.21245C40.7378 2.33368 38.397 0 35.5094 0C32.6219 0 30.2811 2.33368 30.2811 5.21245C30.2811 8.09121 32.6219 10.425 35.5094 10.425Z" fill="#06B6D4" fill-opacity="0.07"/>
<path d="M35.5094 10.425C38.397 10.425 40.7378 8.09121 40.7378 5.21245C40.7378 2.33368 38.397 0 35.5094 0C32.6219 0 30.2811 2.33368 30.2811 5.21245C30.2811 8.09121 32.6219 10.425 35.5094 10.425Z" fill="#06B6D4" fill-opacity="0.07"/>
<path d="M65.7905 10.425C68.6781 10.425 71.0189 8.09121 71.0189 5.21245C71.0189 2.33368 68.6781 0 65.7905 0C62.9029 0 60.5621 2.33368 60.5621 5.21245C60.5621 8.09121 62.9029 10.425 65.7905 10.425Z" fill="#06B6D4" fill-opacity="0.07"/>
<path d="M65.7905 10.425C68.6781 10.425 71.0189 8.09121 71.0189 5.21245C71.0189 2.33368 68.6781 0 65.7905 0C62.9029 0 60.5621 2.33368 60.5621 5.21245C60.5621 8.09121 62.9029 10.425 65.7905 10.425Z" fill="#06B6D4" fill-opacity="0.07"/>
<path d="M96.0716 10.425C98.9592 10.425 101.3 8.09121 101.3 5.21245C101.3 2.33368 98.9592 0 96.0716 0C93.184 0 90.8432 2.33368 90.8432 5.21245C90.8432 8.09121 93.184 10.425 96.0716 10.425Z" fill="#06B6D4" fill-opacity="0.07"/>
<path d="M96.0716 10.425C98.9592 10.425 101.3 8.09121 101.3 5.21245C101.3 2.33368 98.9592 0 96.0716 0C93.184 0 90.8432 2.33368 90.8432 5.21245C90.8432 8.09121 93.184 10.425 96.0716 10.425Z" fill="#06B6D4" fill-opacity="0.07"/>
<path d="M126.353 10.425C129.24 10.425 131.581 8.09121 131.581 5.21245C131.581 2.33368 129.24 0 126.353 0C123.465 0 121.124 2.33368 121.124 5.21245C121.124 8.09121 123.465 10.425 126.353 10.425Z" fill="#06B6D4" fill-opacity="0.07"/>
<path d="M126.353 10.425C129.24 10.425 131.581 8.09121 131.581 5.21245C131.581 2.33368 129.24 0 126.353 0C123.465 0 121.124 2.33368 121.124 5.21245C121.124 8.09121 123.465 10.425 126.353 10.425Z" fill="#06B6D4" fill-opacity="0.07"/>
<path d="M5.22838 36.5958C8.11594 36.5958 10.4568 34.2621 10.4568 31.3834C10.4568 28.5046 8.11594 26.171 5.22838 26.171C2.34082 26.171 0 28.5046 0 31.3834C0 34.2621 2.34082 36.5958 5.22838 36.5958Z" fill="#06B6D4" fill-opacity="0.07"/>
<path d="M5.22838 36.5958C8.11594 36.5958 10.4568 34.2621 10.4568 31.3834C10.4568 28.5046 8.11594 26.171 5.22838 26.171C2.34082 26.171 0 28.5046 0 31.3834C0 34.2621 2.34082 36.5958 5.22838 36.5958Z" fill="#06B6D4" fill-opacity="0.07"/>
<path d="M35.5094 36.5958C38.397 36.5958 40.7378 34.2621 40.7378 31.3834C40.7378 28.5046 38.397 26.171 35.5094 26.171C32.6219 26.171 30.2811 28.5046 30.2811 31.3834C30.2811 34.2621 32.6219 36.5958 35.5094 36.5958Z" fill="#06B6D4" fill-opacity="0.07"/>
<path d="M35.5094 36.5958C38.397 36.5958 40.7378 34.2621 40.7378 31.3834C40.7378 28.5046 38.397 26.171 35.5094 26.171C32.6219 26.171 30.2811 28.5046 30.2811 31.3834C30.2811 34.2621 32.6219 36.5958 35.5094 36.5958Z" fill="#06B6D4" fill-opacity="0.07"/>
<path d="M65.7905 36.5958C68.6781 36.5958 71.0189 34.2621 71.0189 31.3834C71.0189 28.5046 68.6781 26.171 65.7905 26.171C62.9029 26.171 60.5621 28.5046 60.5621 31.3834C60.5621 34.2621 62.9029 36.5958 65.7905 36.5958Z" fill="#06B6D4" fill-opacity="0.07"/>
<path d="M65.7905 36.5958C68.6781 36.5958 71.0189 34.2621 71.0189 31.3834C71.0189 28.5046 68.6781 26.171 65.7905 26.171C62.9029 26.171 60.5621 28.5046 60.5621 31.3834C60.5621 34.2621 62.9029 36.5958 65.7905 36.5958Z" fill="#06B6D4" fill-opacity="0.07"/>
<path d="M96.0716 36.5958C98.9592 36.5958 101.3 34.2621 101.3 31.3834C101.3 28.5046 98.9592 26.171 96.0716 26.171C93.184 26.171 90.8432 28.5046 90.8432 31.3834C90.8432 34.2621 93.184 36.5958 96.0716 36.5958Z" fill="#06B6D4" fill-opacity="0.07"/>
<path d="M96.0716 36.5958C98.9592 36.5958 101.3 34.2621 101.3 31.3834C101.3 28.5046 98.9592 26.171 96.0716 26.171C93.184 26.171 90.8432 28.5046 90.8432 31.3834C90.8432 34.2621 93.184 36.5958 96.0716 36.5958Z" fill="#06B6D4" fill-opacity="0.07"/>
<path d="M126.353 36.5958C129.24 36.5958 131.581 34.2621 131.581 31.3834C131.581 28.5046 129.24 26.171 126.353 26.171C123.465 26.171 121.124 28.5046 121.124 31.3834C121.124 34.2621 123.465 36.5958 126.353 36.5958Z" fill="#06B6D4" fill-opacity="0.07"/>
<path d="M126.353 36.5958C129.24 36.5958 131.581 34.2621 131.581 31.3834C131.581 28.5046 129.24 26.171 126.353 26.171C123.465 26.171 121.124 28.5046 121.124 31.3834C121.124 34.2621 123.465 36.5958 126.353 36.5958Z" fill="#06B6D4" fill-opacity="0.07"/>
<path d="M5.22838 62.7125C8.11594 62.7125 10.4568 60.3788 10.4568 57.5C10.4568 54.6212 8.11594 52.2875 5.22838 52.2875C2.34082 52.2875 0 54.6212 0 57.5C0 60.3788 2.34082 62.7125 5.22838 62.7125Z" fill="#06B6D4" fill-opacity="0.07"/>
<path d="M5.22838 62.7125C8.11594 62.7125 10.4568 60.3788 10.4568 57.5C10.4568 54.6212 8.11594 52.2875 5.22838 52.2875C2.34082 52.2875 0 54.6212 0 57.5C0 60.3788 2.34082 62.7125 5.22838 62.7125Z" fill="#06B6D4" fill-opacity="0.07"/>
<path d="M35.5094 62.7125C38.397 62.7125 40.7378 60.3788 40.7378 57.5C40.7378 54.6212 38.397 52.2875 35.5094 52.2875C32.6219 52.2875 30.2811 54.6212 30.2811 57.5C30.2811 60.3788 32.6219 62.7125 35.5094 62.7125Z" fill="#06B6D4" fill-opacity="0.07"/>
<path d="M35.5094 62.7125C38.397 62.7125 40.7378 60.3788 40.7378 57.5C40.7378 54.6212 38.397 52.2875 35.5094 52.2875C32.6219 52.2875 30.2811 54.6212 30.2811 57.5C30.2811 60.3788 32.6219 62.7125 35.5094 62.7125Z" fill="#06B6D4" fill-opacity="0.07"/>
<path d="M65.7905 62.7125C68.6781 62.7125 71.0189 60.3788 71.0189 57.5C71.0189 54.6212 68.6781 52.2875 65.7905 52.2875C62.9029 52.2875 60.5621 54.6212 60.5621 57.5C60.5621 60.3788 62.9029 62.7125 65.7905 62.7125Z" fill="#06B6D4" fill-opacity="0.07"/>
<path d="M65.7905 62.7125C68.6781 62.7125 71.0189 60.3788 71.0189 57.5C71.0189 54.6212 68.6781 52.2875 65.7905 52.2875C62.9029 52.2875 60.5621 54.6212 60.5621 57.5C60.5621 60.3788 62.9029 62.7125 65.7905 62.7125Z" fill="#06B6D4" fill-opacity="0.07"/>
<path d="M96.0716 62.7125C98.9592 62.7125 101.3 60.3788 101.3 57.5C101.3 54.6212 98.9592 52.2875 96.0716 52.2875C93.184 52.2875 90.8432 54.6212 90.8432 57.5C90.8432 60.3788 93.184 62.7125 96.0716 62.7125Z" fill="#06B6D4" fill-opacity="0.07"/>
<path d="M96.0716 62.7125C98.9592 62.7125 101.3 60.3788 101.3 57.5C101.3 54.6212 98.9592 52.2875 96.0716 52.2875C93.184 52.2875 90.8432 54.6212 90.8432 57.5C90.8432 60.3788 93.184 62.7125 96.0716 62.7125Z" fill="#06B6D4" fill-opacity="0.07"/>
<path d="M126.353 62.7125C129.24 62.7125 131.581 60.3788 131.581 57.5C131.581 54.6212 129.24 52.2875 126.353 52.2875C123.465 52.2875 121.124 54.6212 121.124 57.5C121.124 60.3788 123.465 62.7125 126.353 62.7125Z" fill="#06B6D4" fill-opacity="0.07"/>
<path d="M126.353 62.7125C129.24 62.7125 131.581 60.3788 131.581 57.5C131.581 54.6212 129.24 52.2875 126.353 52.2875C123.465 52.2875 121.124 54.6212 121.124 57.5C121.124 60.3788 123.465 62.7125 126.353 62.7125Z" fill="#06B6D4" fill-opacity="0.07"/>
<path d="M5.22838 88.8834C8.11594 88.8834 10.4568 86.5496 10.4568 83.6709C10.4568 80.7921 8.11594 78.4584 5.22838 78.4584C2.34082 78.4584 0 80.7921 0 83.6709C0 86.5496 2.34082 88.8834 5.22838 88.8834Z" fill="#06B6D4" fill-opacity="0.07"/>
<path d="M5.22838 88.8834C8.11594 88.8834 10.4568 86.5496 10.4568 83.6709C10.4568 80.7921 8.11594 78.4584 5.22838 78.4584C2.34082 78.4584 0 80.7921 0 83.6709C0 86.5496 2.34082 88.8834 5.22838 88.8834Z" fill="#06B6D4" fill-opacity="0.07"/>
<path d="M35.5094 88.8834C38.397 88.8834 40.7378 86.5496 40.7378 83.6709C40.7378 80.7921 38.397 78.4584 35.5094 78.4584C32.6219 78.4584 30.2811 80.7921 30.2811 83.6709C30.2811 86.5496 32.6219 88.8834 35.5094 88.8834Z" fill="#06B6D4" fill-opacity="0.07"/>
<path d="M35.5094 88.8834C38.397 88.8834 40.7378 86.5496 40.7378 83.6709C40.7378 80.7921 38.397 78.4584 35.5094 78.4584C32.6219 78.4584 30.2811 80.7921 30.2811 83.6709C30.2811 86.5496 32.6219 88.8834 35.5094 88.8834Z" fill="#06B6D4" fill-opacity="0.07"/>
<path d="M65.7905 88.8834C68.6781 88.8834 71.0189 86.5496 71.0189 83.6709C71.0189 80.7921 68.6781 78.4584 65.7905 78.4584C62.9029 78.4584 60.5621 80.7921 60.5621 83.6709C60.5621 86.5496 62.9029 88.8834 65.7905 88.8834Z" fill="#06B6D4" fill-opacity="0.07"/>
<path d="M65.7905 88.8834C68.6781 88.8834 71.0189 86.5496 71.0189 83.6709C71.0189 80.7921 68.6781 78.4584 65.7905 78.4584C62.9029 78.4584 60.5621 80.7921 60.5621 83.6709C60.5621 86.5496 62.9029 88.8834 65.7905 88.8834Z" fill="#06B6D4" fill-opacity="0.07"/>
<path d="M96.0716 88.8834C98.9592 88.8834 101.3 86.5496 101.3 83.6709C101.3 80.7921 98.9592 78.4584 96.0716 78.4584C93.184 78.4584 90.8432 80.7921 90.8432 83.6709C90.8432 86.5496 93.184 88.8834 96.0716 88.8834Z" fill="#06B6D4" fill-opacity="0.07"/>
<path d="M96.0716 88.8834C98.9592 88.8834 101.3 86.5496 101.3 83.6709C101.3 80.7921 98.9592 78.4584 96.0716 78.4584C93.184 78.4584 90.8432 80.7921 90.8432 83.6709C90.8432 86.5496 93.184 88.8834 96.0716 88.8834Z" fill="#06B6D4" fill-opacity="0.07"/>
<path d="M126.353 88.8834C129.24 88.8834 131.581 86.5496 131.581 83.6709C131.581 80.7921 129.24 78.4584 126.353 78.4584C123.465 78.4584 121.124 80.7921 121.124 83.6709C121.124 86.5496 123.465 88.8834 126.353 88.8834Z" fill="#06B6D4" fill-opacity="0.07"/>
<path d="M126.353 88.8834C129.24 88.8834 131.581 86.5496 131.581 83.6709C131.581 80.7921 129.24 78.4584 126.353 78.4584C123.465 78.4584 121.124 80.7921 121.124 83.6709C121.124 86.5496 123.465 88.8834 126.353 88.8834Z" fill="#06B6D4" fill-opacity="0.07"/>
<path d="M5.22838 115C8.11594 115 10.4568 112.666 10.4568 109.788C10.4568 106.909 8.11594 104.575 5.22838 104.575C2.34082 104.575 0 106.909 0 109.788C0 112.666 2.34082 115 5.22838 115Z" fill="#06B6D4" fill-opacity="0.07"/>
<path d="M5.22838 115C8.11594 115 10.4568 112.666 10.4568 109.788C10.4568 106.909 8.11594 104.575 5.22838 104.575C2.34082 104.575 0 106.909 0 109.788C0 112.666 2.34082 115 5.22838 115Z" fill="#06B6D4" fill-opacity="0.07"/>
<path d="M35.5094 115C38.397 115 40.7378 112.666 40.7378 109.788C40.7378 106.909 38.397 104.575 35.5094 104.575C32.6219 104.575 30.2811 106.909 30.2811 109.788C30.2811 112.666 32.6219 115 35.5094 115Z" fill="#06B6D4" fill-opacity="0.07"/>
<path d="M35.5094 115C38.397 115 40.7378 112.666 40.7378 109.788C40.7378 106.909 38.397 104.575 35.5094 104.575C32.6219 104.575 30.2811 106.909 30.2811 109.788C30.2811 112.666 32.6219 115 35.5094 115Z" fill="#06B6D4" fill-opacity="0.07"/>
<path d="M65.7905 115C68.6781 115 71.0189 112.666 71.0189 109.788C71.0189 106.909 68.6781 104.575 65.7905 104.575C62.9029 104.575 60.5621 106.909 60.5621 109.788C60.5621 112.666 62.9029 115 65.7905 115Z" fill="#06B6D4" fill-opacity="0.07"/>
<path d="M65.7905 115C68.6781 115 71.0189 112.666 71.0189 109.788C71.0189 106.909 68.6781 104.575 65.7905 104.575C62.9029 104.575 60.5621 106.909 60.5621 109.788C60.5621 112.666 62.9029 115 65.7905 115Z" fill="#06B6D4" fill-opacity="0.07"/>
<path d="M96.0716 115C98.9592 115 101.3 112.666 101.3 109.788C101.3 106.909 98.9592 104.575 96.0716 104.575C93.184 104.575 90.8432 106.909 90.8432 109.788C90.8432 112.666 93.184 115 96.0716 115Z" fill="#06B6D4" fill-opacity="0.07"/>
<path d="M96.0716 115C98.9592 115 101.3 112.666 101.3 109.788C101.3 106.909 98.9592 104.575 96.0716 104.575C93.184 104.575 90.8432 106.909 90.8432 109.788C90.8432 112.666 93.184 115 96.0716 115Z" fill="#06B6D4" fill-opacity="0.07"/>
<path d="M126.353 115C129.24 115 131.581 112.666 131.581 109.788C131.581 106.909 129.24 104.575 126.353 104.575C123.465 104.575 121.124 106.909 121.124 109.788C121.124 112.666 123.465 115 126.353 115Z" fill="#06B6D4" fill-opacity="0.07"/>
<path d="M126.353 115C129.24 115 131.581 112.666 131.581 109.788C131.581 106.909 129.24 104.575 126.353 104.575C123.465 104.575 121.124 106.909 121.124 109.788C121.124 112.666 123.465 115 126.353 115Z" fill="#06B6D4" fill-opacity="0.07"/>
</svg>
