<svg width="78" height="72" viewBox="0 0 78 72" fill="none" xmlns="http://www.w3.org/2000/svg">
<g clip-path="url(#clip0_152_300)">
<path d="M64.2707 14.0108H13.1373V71.1274H64.2707V14.0108Z" fill="url(#paint0_linear_152_300)"/>
<path d="M12.9257 14.0108C12.9874 14.0108 13.0491 14.0383 13.1372 14.0658C13.1372 33.068 13.1372 52.0702 13.1372 71.0999C9.17881 71.421 5.83751 70.3842 3.18386 67.7234C1.30603 65.8332 0.397976 63.6128 0.397976 61.0987C0.397976 52.1986 0.397976 43.3077 0.397976 34.4076C0.397976 31.0127 0.38916 27.6178 0.38916 24.223C0.38916 20.1216 2.51384 17.1396 6.41937 15.121C8.42944 14.0934 10.6599 13.9374 12.9257 14.0108Z" fill="url(#paint1_linear_152_300)"/>
<path d="M55.34 14.0016C57.6234 14.0016 57.8526 14.0016 60.1271 14.0016C60.1271 33.068 60.1271 52.0702 60.1271 71.1091C44.602 71.1091 32.8589 71.1091 17.2809 71.1091C17.2809 52.0794 17.2809 33.0772 17.2809 14.02C19.5554 14.02 20.0491 14.02 22.3678 14.02C22.3678 13.7814 22.3678 13.5979 22.3678 13.4236C22.3678 11.3775 22.3766 9.32218 22.359 7.27607C22.3413 5.84472 22.7116 4.59687 23.7872 3.62428C24.5453 2.9453 25.4181 2.59664 26.4055 2.59664C29.4647 2.58746 32.5151 2.58746 35.5743 2.58746C40.7141 2.58746 45.8627 2.59664 51.0025 2.58746C52.3513 2.58746 53.471 3.04623 54.3526 4.11057C55.0579 4.96388 55.3224 5.964 55.3224 7.08339C55.3135 9.2396 55.3224 11.3958 55.3224 13.552C55.3135 13.6713 55.3224 13.8089 55.34 14.0016ZM27.8867 14.0016C28.0982 14.0016 28.2569 14.0016 28.4156 14.0016C30.8489 14.0016 33.2909 14.0016 35.7242 14.0016C40.2733 14.0016 44.8312 14.0016 49.3803 14.0108C49.7418 14.0108 49.8211 13.8915 49.8211 13.5337C49.8035 11.928 49.8211 10.3223 49.8211 8.71661C49.8211 8.58815 49.8035 8.45969 49.7858 8.32206C42.4685 8.32206 35.1952 8.32206 27.8867 8.32206C27.8867 10.2122 27.8867 12.0656 27.8867 14.0016Z" fill="white"/>
<mask id="mask0_152_300" style="mask-type:alpha" maskUnits="userSpaceOnUse" x="17" y="2" width="44" height="70">
<path d="M55.34 14.0016C57.6234 14.0016 57.8526 14.0016 60.1271 14.0016C60.1271 33.068 60.1271 52.0702 60.1271 71.1091C44.602 71.1091 32.8589 71.1091 17.2809 71.1091C17.2809 52.0794 17.2809 33.0772 17.2809 14.02C19.5554 14.02 20.0491 14.02 22.3678 14.02C22.3678 13.7814 22.3678 13.5979 22.3678 13.4236C22.3678 11.3775 22.3766 9.32218 22.359 7.27607C22.3413 5.84472 22.7116 4.59687 23.7872 3.62428C24.5453 2.9453 25.4181 2.59664 26.4055 2.59664C29.4647 2.58746 32.5151 2.58746 35.5743 2.58746C40.7141 2.58746 45.8627 2.59664 51.0025 2.58746C52.3513 2.58746 53.471 3.04623 54.3526 4.11057C55.0579 4.96388 55.3224 5.964 55.3224 7.08339C55.3135 9.2396 55.3224 11.3958 55.3224 13.552C55.3135 13.6713 55.3224 13.8089 55.34 14.0016ZM27.8867 14.0016C28.0982 14.0016 28.2569 14.0016 28.4156 14.0016C30.8489 14.0016 33.2909 14.0016 35.7242 14.0016C40.2733 14.0016 44.8312 14.0016 49.3803 14.0108C49.7418 14.0108 49.8211 13.8915 49.8211 13.5337C49.8035 11.928 49.8211 10.3223 49.8211 8.71661C49.8211 8.58815 49.8035 8.45969 49.7858 8.32206C42.4685 8.32206 35.1952 8.32206 27.8867 8.32206C27.8867 10.2122 27.8867 12.0656 27.8867 14.0016Z" fill="#F7F9FC"/>
</mask>
<g mask="url(#mask0_152_300)">
<path d="M56.2193 0H20.5758V14.02H56.2193V0Z" fill="url(#paint2_linear_152_300)"/>
</g>
<path d="M77.2656 24.0762C77.2656 20.2959 75.282 17.4791 71.7555 15.433C69.5868 14.176 67.1271 13.9374 64.6057 13.9925C64.2178 14.0016 64.2707 14.2127 64.2707 14.4329C64.2707 21.0391 64.2707 27.6362 64.2707 34.2425C64.2707 45.8493 64.2707 57.447 64.2618 69.0538C64.2618 69.7236 64.2618 70.3934 64.2618 71.1183C65.8487 71.1733 67.3563 71.1825 68.8374 70.8155C73.8449 69.586 77.2568 65.7048 77.2568 61.1263C77.2744 48.7854 77.2656 36.4262 77.2656 24.0762Z" fill="url(#paint3_linear_152_300)"/>
<path d="M42.8828 46.7852C42.8828 47.9688 42.8828 49.0882 42.8828 50.2168C42.8828 51.4921 42.8828 52.7675 42.8828 54.0337C42.8828 54.7953 42.5125 55.199 41.7896 55.199C39.7972 55.2082 37.8047 55.2082 35.8123 55.199C35.1511 55.199 34.7808 54.7677 34.7808 54.0429C34.7808 51.7674 34.7808 49.4919 34.7808 47.2164C34.7808 47.088 34.7808 46.9503 34.7808 46.7852C34.6133 46.7852 34.4899 46.7852 34.3576 46.7852C32.2065 46.7852 30.0466 46.7852 27.8954 46.7852C27.0403 46.7852 26.6876 46.4273 26.6876 45.5373C26.6876 43.5646 26.6876 41.5919 26.6876 39.6192C26.6876 38.72 27.0314 38.3622 27.8866 38.3622C30.0289 38.3622 32.1712 38.3622 34.3135 38.3622C34.4546 38.3622 34.5868 38.3622 34.772 38.3622C34.772 38.2154 34.772 38.0961 34.772 37.9768C34.772 35.7013 34.772 33.4258 34.772 31.1504C34.772 30.3062 35.1334 29.9392 35.9445 29.9392C37.84 29.9392 39.7354 29.9392 41.6309 29.9392C42.5213 29.9392 42.8652 30.2879 42.8652 31.2329C42.874 33.4901 42.8652 35.738 42.8652 37.9952C42.8652 38.1053 42.8652 38.2154 42.8652 38.3714C43.0062 38.3714 43.1296 38.3714 43.2443 38.3714C45.4306 38.3714 47.617 38.3714 49.8034 38.3805C50.6057 38.3805 50.9495 38.7476 50.9495 39.5825C50.9495 41.5644 50.9495 43.5463 50.9495 45.5282C50.9495 46.4365 50.6145 46.7852 49.7594 46.7852C47.5818 46.7852 45.4042 46.7852 43.2354 46.7944C43.1473 46.7852 43.0415 46.7852 42.8828 46.7852Z" fill="url(#paint4_linear_152_300)"/>
</g>
<defs>
<linearGradient id="paint0_linear_152_300" x1="13.1386" y1="42.5657" x2="64.2683" y2="42.5657" gradientUnits="userSpaceOnUse">
<stop stop-color="#B0F4FF"/>
<stop offset="1" stop-color="#69DCFC"/>
</linearGradient>
<linearGradient id="paint1_linear_152_300" x1="0.397976" y1="42.5747" x2="13.1385" y2="42.5747" gradientUnits="userSpaceOnUse">
<stop stop-color="#6CEBFC"/>
<stop offset="1" stop-color="#45D0FC"/>
</linearGradient>
<linearGradient id="paint2_linear_152_300" x1="20.5721" y1="7.00849" x2="56.2177" y2="7.00849" gradientUnits="userSpaceOnUse">
<stop stop-color="#6CF3FC"/>
<stop offset="1" stop-color="#45E6FC"/>
</linearGradient>
<linearGradient id="paint3_linear_152_300" x1="64.264" y1="42.569" x2="77.2663" y2="42.569" gradientUnits="userSpaceOnUse">
<stop stop-color="#6CF3FC"/>
<stop offset="1" stop-color="#45DBFC"/>
</linearGradient>
<linearGradient id="paint4_linear_152_300" x1="26.693" y1="42.5783" x2="50.9672" y2="42.5783" gradientUnits="userSpaceOnUse">
<stop stop-color="#6CEBFC"/>
<stop offset="1" stop-color="#45DBFC"/>
</linearGradient>
<clipPath id="clip0_152_300">
<rect width="76.8676" height="71.1549" fill="white" transform="translate(0.398071)"/>
</clipPath>
</defs>
</svg>
