<svg width="89" height="90" viewBox="0 0 89 90" fill="none" xmlns="http://www.w3.org/2000/svg">
<g clip-path="url(#clip0_152_209)">
<path d="M54.5657 43.3151L45.8433 51.9802L9.0099 88.5661C8.04292 89.5289 6.80244 90.0103 5.56197 90.0103C4.20428 90.0103 2.84659 89.4367 1.86007 88.2998C-0.0836645 86.0669 0.170291 82.5743 2.40706 80.6692L45.8433 43.8272L50.6293 39.7712L54.5657 43.3151Z" fill="url(#paint0_linear_152_209)"/>
<path d="M45.4624 52.4206L36.8767 60.9423L36.0856 52.185L40.7838 48.2007L45.4624 52.4206Z" fill="#3ACDD6" fill-opacity="0.8"/>
<path d="M88.9279 29.9078C88.9279 46.4288 76.1519 59.8259 60.4067 59.8259C50.4829 59.8259 41.7409 54.5101 36.6325 46.4391C33.6339 41.7071 31.8855 36.0225 31.8855 29.9078C31.8855 13.3868 44.6614 0 60.4067 0C67.5174 0 74.0129 2.72448 79.0041 7.23114C85.0795 12.7211 88.9279 20.8433 88.9279 29.9078Z" fill="url(#paint1_linear_152_209)"/>
<path d="M60.4067 53.2093C72.6791 53.2093 82.6278 42.7768 82.6278 29.9078C82.6278 17.0387 72.6791 6.60632 60.4067 6.60632C48.1343 6.60632 38.1855 17.0387 38.1855 29.9078C38.1855 42.7768 48.1343 53.2093 60.4067 53.2093Z" fill="white"/>
<path opacity="0.06" d="M88.9279 29.9078C88.9279 46.4288 76.152 59.8258 60.4067 59.8258C50.4829 59.8258 41.741 54.51 36.6326 46.439C68.797 43.694 77.2752 15.1177 79.0139 7.23108C85.0795 12.721 88.9279 20.8432 88.9279 29.9078Z" fill="#1AB5AC" fill-opacity="0.5"/>
<path d="M60.4067 29.959C62.9854 29.959 65.0756 27.7671 65.0756 25.0631C65.0756 22.3591 62.9854 20.1672 60.4067 20.1672C57.8281 20.1672 55.7378 22.3591 55.7378 25.0631C55.7378 27.7671 57.8183 29.959 60.4067 29.959ZM60.4067 32.4069C57.2909 32.4069 51.069 34.0457 51.069 37.3028V38.5319C51.069 39.2079 51.5964 39.761 52.2411 39.761H68.5919C69.2366 39.761 69.764 39.2079 69.764 38.5319V37.3028C69.7445 34.0559 63.5226 32.4069 60.4067 32.4069Z" fill="url(#paint2_linear_152_209)"/>
</g>
<defs>
<linearGradient id="paint0_linear_152_209" x1="6.00374" y1="84.3265" x2="54.0185" y2="42.7005" gradientUnits="userSpaceOnUse">
<stop stop-color="#67F3E2"/>
<stop offset="1" stop-color="#5AE0F2"/>
</linearGradient>
<linearGradient id="paint1_linear_152_209" x1="48.6101" y1="2.11336" x2="71.9772" y2="52.2085" gradientUnits="userSpaceOnUse">
<stop stop-color="#67F3F3"/>
<stop offset="1" stop-color="#5AD7F2"/>
</linearGradient>
<linearGradient id="paint2_linear_152_209" x1="53.6559" y1="28.3947" x2="70.8665" y2="36.3997" gradientUnits="userSpaceOnUse">
<stop stop-color="#B0F4FF"/>
<stop offset="0.071077" stop-color="#A6F1FF"/>
<stop offset="0.2937" stop-color="#8BE8FD"/>
<stop offset="0.5209" stop-color="#78E1FD"/>
<stop offset="0.7536" stop-color="#6DDDFC"/>
<stop offset="1" stop-color="#69DCFC"/>
</linearGradient>
<clipPath id="clip0_152_209">
<rect width="88.3766" height="90" fill="white" transform="translate(0.55127)"/>
</clipPath>
</defs>
</svg>
