<svg width="65" height="95" viewBox="0 0 65 95" fill="none" xmlns="http://www.w3.org/2000/svg">
<g clip-path="url(#clip0_152_257)">
<path d="M64.5323 90.4482C64.5323 92.9272 62.6044 94.942 60.2224 94.942L4.48873 95.0083C2.5927 95.0083 0.983467 93.7398 0.401912 91.9737C0.250549 91.5177 0.170884 91.0368 0.170884 90.5311L0.083252 6.88167C0.083252 4.40261 2.01115 2.38786 4.39313 2.38786L55.57 2.32982L60.1268 2.32153C62.5088 2.32153 64.4447 4.32799 64.4447 6.80704L64.5323 90.4482Z" fill="url(#paint0_linear_152_257)"/>
<path d="M58.7566 89.9673L5.94662 90.0253C4.66402 90.0253 3.62837 88.9474 3.62837 87.6126L3.54871 9.76697C3.54871 8.43209 4.58435 7.35424 5.86696 7.35424L58.669 7.2962C59.9516 7.2962 60.9872 8.37405 60.9872 9.70893L61.0669 87.5545C61.0749 88.8811 60.0392 89.9673 58.7566 89.9673Z" fill="white"/>
<path d="M51.3398 13.7136L12.8217 13.7633C11.5471 13.7633 10.5035 12.6855 10.5035 11.3589L10.4955 4.67623C10.4955 3.34964 11.5311 2.2635 12.8058 2.2635L51.3318 2.22205C52.6064 2.22205 53.6501 3.2999 53.6501 4.62648L53.658 11.3091C53.6501 12.6357 52.6144 13.7136 51.3398 13.7136ZM12.8058 3.49059C12.1844 3.49059 11.6745 4.02123 11.6745 4.66793L11.6825 11.3506C11.6825 11.9973 12.1924 12.5279 12.8137 12.5279L51.3398 12.4865C51.9612 12.4865 52.471 11.9559 52.471 11.3091L52.463 4.62648C52.463 3.97977 51.9532 3.44914 51.3318 3.44914L12.8058 3.49059Z" fill="url(#paint1_linear_152_257)"/>
<path d="M50.2484 5.11564L14.2796 5.1571C13.8813 5.1571 13.5626 4.82545 13.5626 4.41089V0.787659C13.5626 0.373102 13.8813 0.0414557 14.2796 0.0414557L50.2404 0C50.6388 0 50.9574 0.331646 50.9574 0.746203V4.36944C50.9654 4.78399 50.6467 5.11564 50.2484 5.11564Z" fill="url(#paint2_linear_152_257)"/>
<path d="M14.3114 5.15708L50.2164 5.11562C50.6307 5.11562 50.9653 4.7674 50.9653 4.33626V2.56195L13.5546 2.60341V4.37771C13.5546 4.80885 13.8971 5.15708 14.3114 5.15708Z" fill="#58D6F4"/>
<path d="M26.9304 81.2118L23.8235 61.6447L21.3061 70.1597L14.1044 70.168C13.6662 70.168 13.3157 69.8032 13.3157 69.3472C13.3157 68.8912 13.6662 68.5264 14.1044 68.5264L20.1509 68.5181L24.3015 54.4977L27.4084 74.1146L31.4395 60.6415L33.5825 67.0257L38.4102 54.846L43.1024 74.1643L44.871 68.0206L50.0492 68.0123C50.4874 68.0123 50.8379 68.3771 50.8379 68.8331C50.8379 69.2892 50.4874 69.654 50.0492 69.654L46.0421 69.6623L42.975 80.3164L38.0517 60.0528L33.455 71.6355L31.5191 65.8732L26.9304 81.2118Z" fill="#58D6F4"/>
<path d="M21.5929 43.4871L11.4674 43.4954C9.83429 43.4954 8.49591 42.1107 8.49591 40.411L8.47998 25.6777C8.47998 23.978 9.81039 22.5851 11.4435 22.5851L21.569 22.5768C23.2021 22.5768 24.5405 23.9614 24.5405 25.6611L24.5564 40.3945C24.5564 42.0942 23.226 43.4788 21.5929 43.4871ZM11.4356 23.4805C10.2724 23.4805 9.3324 24.4672 9.3324 25.6777L9.34833 40.411C9.34833 41.6216 10.2963 42.5999 11.4595 42.5999L21.5849 42.5916C22.748 42.5916 23.688 41.605 23.688 40.3945L23.6721 25.6611C23.6721 24.4506 22.7241 23.4722 21.561 23.4722L11.4356 23.4805Z" fill="url(#paint3_linear_152_257)"/>
<path d="M16.5181 40.6598C21.306 40.6515 22.7957 37.7745 22.7957 37.7745C22.5806 37.4926 22.3097 37.2439 21.9433 36.9951C20.6846 36.1411 19.6728 35.7763 19.2506 35.4115C18.8204 35.055 18.5814 34.5327 18.5814 34.5327L18.3185 34.6985C18.3185 34.6985 18.1592 34.1264 18.2468 33.2558C18.2468 33.2558 18.6212 33.1563 18.9001 31.838C19.3462 31.9292 19.872 30.7519 19.625 30.3207C19.4657 30.0388 19.2745 30.0637 19.1391 30.1301C19.2745 29.5414 19.8879 26.283 16.5101 26.283C13.1323 26.283 13.7457 29.5414 13.8891 30.1301C13.7537 30.0637 13.5625 30.0388 13.4032 30.3207C13.1562 30.7519 13.69 31.9292 14.1361 31.838C14.4149 33.1563 14.7973 33.2475 14.7973 33.2475C14.8929 34.1098 14.7256 34.6902 14.7256 34.6902L14.4627 34.5244C14.4627 34.5244 14.2237 35.0384 13.7935 35.4032C13.3634 35.768 12.3596 36.1411 11.1009 36.9951C10.7344 37.2439 10.4556 37.4926 10.2484 37.7745C10.2405 37.7911 11.7382 40.6681 16.5181 40.6598Z" fill="url(#paint4_linear_152_257)"/>
<path d="M48.0495 27.2779L28.5555 27.3028C28.189 27.3028 27.8943 26.996 27.8943 26.6146V26.4986C27.8943 26.1172 28.189 25.8104 28.5555 25.8104L48.0495 25.7855C48.416 25.7855 48.7108 26.0923 48.7108 26.4737V26.5898C48.7108 26.9712 48.408 27.2779 48.0495 27.2779Z" fill="url(#paint5_linear_152_257)"/>
<path d="M40.8797 31.1415L28.5555 31.1581C28.189 31.1581 27.8943 30.8513 27.8943 30.4699V30.3539C27.8943 29.9725 28.189 29.6657 28.5555 29.6657L40.8797 29.6491C41.2462 29.6491 41.5409 29.9559 41.5409 30.3373V30.4534C41.5409 30.8348 41.2462 31.1415 40.8797 31.1415Z" fill="url(#paint6_linear_152_257)"/>
<path opacity="0.6" d="M54.7734 35.7348L28.5636 35.768C28.1971 35.768 27.9023 35.4612 27.9023 35.0798V34.9638C27.9023 34.5824 28.1971 34.2756 28.5636 34.2756L54.7734 34.2424C55.1398 34.2424 55.4346 34.5492 55.4346 34.9306V35.0467C55.4266 35.4281 55.1319 35.7348 54.7734 35.7348Z" fill="url(#paint7_linear_152_257)"/>
<path opacity="0.6" d="M54.2077 48.6442L10.4875 48.6939C10.1131 48.6939 9.80237 48.3789 9.80237 47.9809V47.9146C9.80237 47.5249 10.1051 47.2015 10.4875 47.2015L54.2077 47.1518C54.5821 47.1518 54.8928 47.4669 54.8928 47.8648V47.9312C54.8928 48.3291 54.5821 48.6442 54.2077 48.6442Z" fill="url(#paint8_linear_152_257)"/>
<path opacity="0.6" d="M54.7734 40.2452L28.5636 40.2784C28.1971 40.2784 27.9023 39.9716 27.9023 39.5902V39.4741C27.9023 39.0927 28.1971 38.786 28.5636 38.786L54.7734 38.7528C55.1398 38.7528 55.4346 39.0596 55.4346 39.441V39.5571C55.4346 39.9384 55.1398 40.2452 54.7734 40.2452Z" fill="url(#paint9_linear_152_257)"/>
</g>
<defs>
<linearGradient id="paint0_linear_152_257" x1="-8.84173" y1="34.748" x2="74.0651" y2="60.6313" gradientUnits="userSpaceOnUse">
<stop stop-color="#6CEBFC"/>
<stop offset="0.1713" stop-color="#5EF3FC"/>
<stop offset="0.4084" stop-color="#50DDFC"/>
<stop offset="0.6698" stop-color="#48DCFC"/>
<stop offset="1" stop-color="#45DBFC"/>
</linearGradient>
<linearGradient id="paint1_linear_152_257" x1="-4.93714" y1="-21.375" x2="54.511" y2="6.13277" gradientUnits="userSpaceOnUse">
<stop stop-color="#CFE9FF"/>
<stop offset="1" stop-color="#A1D6FB"/>
</linearGradient>
<linearGradient id="paint2_linear_152_257" x1="13.5535" y1="2.57952" x2="50.9647" y2="2.57952" gradientUnits="userSpaceOnUse">
<stop stop-color="#B0F4FF"/>
<stop offset="1" stop-color="#69DCFC"/>
</linearGradient>
<linearGradient id="paint3_linear_152_257" x1="13.6648" y1="29.2075" x2="23.5361" y2="41.4515" gradientUnits="userSpaceOnUse">
<stop stop-color="#6CBCFC"/>
<stop offset="1" stop-color="#458DFC"/>
</linearGradient>
<linearGradient id="paint4_linear_152_257" x1="12.6454" y1="30.0293" x2="22.5168" y2="42.2734" gradientUnits="userSpaceOnUse">
<stop stop-color="#B0F4FF"/>
<stop offset="0.0994384" stop-color="#A1EFFE"/>
<stop offset="0.2994" stop-color="#88E7FD"/>
<stop offset="0.5095" stop-color="#77E1FD"/>
<stop offset="0.7344" stop-color="#6CDDFC"/>
<stop offset="1" stop-color="#69DCFC"/>
</linearGradient>
<linearGradient id="paint5_linear_152_257" x1="27.8954" y1="26.551" x2="48.7066" y2="26.563" gradientUnits="userSpaceOnUse">
<stop stop-color="#6CF3FC"/>
<stop offset="1" stop-color="#45E6FC"/>
</linearGradient>
<linearGradient id="paint6_linear_152_257" x1="27.8992" y1="30.4036" x2="41.5401" y2="30.4036" gradientUnits="userSpaceOnUse">
<stop stop-color="#6CEBFC"/>
<stop offset="1" stop-color="#45E6FC"/>
</linearGradient>
<linearGradient id="paint7_linear_152_257" x1="27.9038" y1="35.0098" x2="55.4301" y2="35.0098" gradientUnits="userSpaceOnUse">
<stop stop-color="#6CFCFC"/>
<stop offset="1" stop-color="#45FCFC"/>
</linearGradient>
<linearGradient id="paint8_linear_152_257" x1="9.80199" y1="47.9272" x2="54.8906" y2="47.9272" gradientUnits="userSpaceOnUse">
<stop stop-color="#6CE2FC"/>
<stop offset="1" stop-color="#45F1FC"/>
</linearGradient>
<linearGradient id="paint9_linear_152_257" x1="27.9083" y1="39.5191" x2="55.4346" y2="39.5191" gradientUnits="userSpaceOnUse">
<stop stop-color="#6CBCFC"/>
<stop offset="1" stop-color="#458DFC"/>
</linearGradient>
<clipPath id="clip0_152_257">
<rect width="64.4491" height="95" fill="white" transform="translate(0.083252)"/>
</clipPath>
</defs>
</svg>
