<svg width="68" height="95" viewBox="0 0 68 95" fill="none" xmlns="http://www.w3.org/2000/svg">
<g clip-path="url(#clip0_152_276)">
<g filter="url(#filter0_d_152_276)">
<path d="M67.0667 4.31029V90.7055C67.0667 93.0896 65.216 95.0158 62.9252 95.0158H4.50406C2.21334 95 0.362549 93.0738 0.362549 90.7055V4.31029C0.362549 1.92621 2.21334 0 4.50406 0H62.9404C65.216 0 67.0667 1.92621 67.0667 4.31029Z" fill="url(#paint0_linear_152_276)"/>
<path d="M62.8173 7.94666V87.0533C62.8173 89.2363 61.1911 91 59.1783 91H7.84487C5.83206 90.9855 4.20581 89.2218 4.20581 87.0533V7.94666C4.20581 5.76371 5.83206 4 7.84487 4H59.1916C61.1911 4 62.8173 5.76371 62.8173 7.94666Z" fill="url(#paint1_linear_152_276)"/>
<path d="M26.1826 18.2516V22.183C26.1826 22.4672 25.9702 22.6882 25.6971 22.6882H21.0702C20.7971 22.6882 20.5847 22.9093 20.5847 23.1935V28.009C20.5847 28.2932 20.3723 28.5142 20.0992 28.5142H16.3218C16.0488 28.5142 15.8364 28.2932 15.8364 28.009V23.1935C15.8364 22.9093 15.624 22.6882 15.3509 22.6882H10.7391C10.466 22.6882 10.2537 22.4672 10.2537 22.183V18.2516C10.2537 17.9674 10.466 17.7464 10.7391 17.7464H15.3661C15.6392 17.7464 15.8515 17.5254 15.8515 17.2412V12.4256C15.8515 12.1415 16.0639 11.9204 16.337 11.9204H20.1144C20.3875 11.9204 20.5999 12.1415 20.5999 12.4256V17.2412C20.5999 17.5254 20.8123 17.7464 21.0853 17.7464H25.6971C25.9702 17.7464 26.1826 17.9674 26.1826 18.2516Z" fill="url(#paint2_linear_152_276)"/>
<path opacity="0.5" d="M56.6447 39.6768H10.7847C10.4813 39.6768 10.2385 39.4242 10.2385 39.1084V37.2927C10.2385 36.9769 10.4813 36.7243 10.7847 36.7243H56.6447C56.9482 36.7243 57.1909 36.9769 57.1909 37.2927V39.1084C57.1757 39.4242 56.9482 39.6768 56.6447 39.6768Z" fill="url(#paint3_linear_152_276)"/>
<path d="M56.6447 17.0517H33.8892C33.5857 17.0517 33.343 16.7991 33.343 16.4833V14.6834C33.343 14.3677 33.5857 14.1151 33.8892 14.1151H56.6447C56.9481 14.1151 57.1909 14.3677 57.1909 14.6834V16.4991C57.1757 16.7991 56.9481 17.0517 56.6447 17.0517Z" fill="url(#paint4_linear_152_276)"/>
<path opacity="0.5" d="M49.9091 24.725H33.8892C33.5857 24.725 33.343 24.4724 33.343 24.1566V22.3409C33.343 22.0251 33.5857 21.7725 33.8892 21.7725H49.9091C50.2125 21.7725 50.4552 22.0251 50.4552 22.3409V24.1566C50.44 24.4724 50.2125 24.725 49.9091 24.725Z" fill="url(#paint5_linear_152_276)"/>
<path opacity="0.5" d="M56.6447 48.2973H10.7847C10.4813 48.2973 10.2385 48.0447 10.2385 47.7289V45.9132C10.2385 45.5975 10.4813 45.3448 10.7847 45.3448H56.6447C56.9482 45.3448 57.1909 45.5975 57.1909 45.9132V47.7289C57.1757 48.0447 56.9482 48.2973 56.6447 48.2973Z" fill="url(#paint6_linear_152_276)"/>
<path opacity="0.5" d="M56.6447 56.9179H10.7847C10.4813 56.9179 10.2385 56.6653 10.2385 56.3495V54.5338C10.2385 54.2181 10.4813 53.9655 10.7847 53.9655H56.6447C56.9482 53.9655 57.1909 54.2181 57.1909 54.5338V56.3653C57.1757 56.6653 56.9482 56.9179 56.6447 56.9179Z" fill="url(#paint7_linear_152_276)"/>
<path opacity="0.5" d="M56.6447 65.5543H10.7847C10.4813 65.5543 10.2385 65.3017 10.2385 64.9859V63.1702C10.2385 62.8544 10.4813 62.6018 10.7847 62.6018H56.6447C56.9482 62.6018 57.1909 62.8544 57.1909 63.1702V64.9859C57.1757 65.3017 56.9482 65.5543 56.6447 65.5543Z" fill="url(#paint8_linear_152_276)"/>
<path opacity="0.5" d="M56.6447 74.1749H10.7847C10.4813 74.1749 10.2385 73.9223 10.2385 73.6065V71.7908C10.2385 71.475 10.4813 71.2224 10.7847 71.2224H56.6447C56.9482 71.2224 57.1909 71.475 57.1909 71.7908V73.6065C57.1757 73.9223 56.9482 74.1749 56.6447 74.1749Z" fill="url(#paint9_linear_152_276)"/>
<path opacity="0.5" d="M56.6447 82.7954H10.7847C10.4813 82.7954 10.2385 82.5428 10.2385 82.227V80.4113C10.2385 80.0956 10.4813 79.843 10.7847 79.843H56.6447C56.9482 79.843 57.1909 80.0956 57.1909 80.4113V82.227C57.1757 82.5428 56.9482 82.7954 56.6447 82.7954Z" fill="url(#paint10_linear_152_276)"/>
<path opacity="0.1" d="M67.0667 4.31029V90.7055C67.0667 93.0896 65.216 95.0158 62.9252 95.0158H4.50406C2.21334 95 0.362549 93.0738 0.362549 90.7055V89.2056C35.9978 73.8906 52.5942 15.1571 56.3413 0H62.9252C65.216 0 67.0667 1.92621 67.0667 4.31029Z" fill="#1AACB5" fill-opacity="0.4"/>
</g>
</g>
<defs>
<filter id="filter0_d_152_276" x="-3.63745" y="0" width="74.7041" height="103.016" filterUnits="userSpaceOnUse" color-interpolation-filters="sRGB">
<feFlood flood-opacity="0" result="BackgroundImageFix"/>
<feColorMatrix in="SourceAlpha" type="matrix" values="0 0 0 0 0 0 0 0 0 0 0 0 0 0 0 0 0 0 127 0" result="hardAlpha"/>
<feOffset dy="4"/>
<feGaussianBlur stdDeviation="2"/>
<feComposite in2="hardAlpha" operator="out"/>
<feColorMatrix type="matrix" values="0 0 0 0 0 0 0 0 0 0 0 0 0 0 0 0 0 0 0.25 0"/>
<feBlend mode="normal" in2="BackgroundImageFix" result="effect1_dropShadow_152_276"/>
<feBlend mode="normal" in="SourceGraphic" in2="effect1_dropShadow_152_276" result="shape"/>
</filter>
<linearGradient id="paint0_linear_152_276" x1="91.6428" y1="126" x2="-10.3267" y2="-1.56383" gradientUnits="userSpaceOnUse">
<stop offset="0.3061" stop-color="#5BFCE9"/>
<stop offset="1" stop-color="#69EAFC"/>
</linearGradient>
<linearGradient id="paint1_linear_152_276" x1="8.64885" y1="7.04564" x2="58.6201" y2="76.1603" gradientUnits="userSpaceOnUse">
<stop offset="0.3061" stop-color="white"/>
<stop offset="1" stop-color="white"/>
</linearGradient>
<linearGradient id="paint2_linear_152_276" x1="9.97102" y1="9.50003" x2="25.2362" y2="33.4568" gradientUnits="userSpaceOnUse">
<stop stop-color="#B0F4FF"/>
<stop offset="0.368525" stop-color="#80E4FD"/>
<stop offset="1" stop-color="#6CDDFC"/>
</linearGradient>
<linearGradient id="paint3_linear_152_276" x1="10.2502" y1="38.2072" x2="57.1826" y2="38.2072" gradientUnits="userSpaceOnUse">
<stop stop-color="#6CBCFC"/>
<stop offset="1" stop-color="#458DFC"/>
</linearGradient>
<linearGradient id="paint4_linear_152_276" x1="33.3434" y1="15.5845" x2="57.1826" y2="15.5845" gradientUnits="userSpaceOnUse">
<stop stop-color="#6CBCFC"/>
<stop offset="1" stop-color="#458DFC"/>
</linearGradient>
<linearGradient id="paint5_linear_152_276" x1="33.3434" y1="23.2616" x2="50.4472" y2="23.2616" gradientUnits="userSpaceOnUse">
<stop stop-color="#6CBCFC"/>
<stop offset="1" stop-color="#458DFC"/>
</linearGradient>
<linearGradient id="paint6_linear_152_276" x1="10.2502" y1="46.8317" x2="57.1826" y2="46.8317" gradientUnits="userSpaceOnUse">
<stop stop-color="#6CBCFC"/>
<stop offset="1" stop-color="#458DFC"/>
</linearGradient>
<linearGradient id="paint7_linear_152_276" x1="10.2502" y1="55.4562" x2="57.1826" y2="55.4562" gradientUnits="userSpaceOnUse">
<stop stop-color="#6CBCFC"/>
<stop offset="1" stop-color="#458DFC"/>
</linearGradient>
<linearGradient id="paint8_linear_152_276" x1="10.2502" y1="64.0807" x2="57.1826" y2="64.0807" gradientUnits="userSpaceOnUse">
<stop stop-color="#6CBCFC"/>
<stop offset="1" stop-color="#458DFC"/>
</linearGradient>
<linearGradient id="paint9_linear_152_276" x1="10.2502" y1="72.7052" x2="57.1826" y2="72.7052" gradientUnits="userSpaceOnUse">
<stop stop-color="#6CE2FC"/>
<stop offset="1" stop-color="#45C5FC"/>
</linearGradient>
<linearGradient id="paint10_linear_152_276" x1="10.2502" y1="81.3296" x2="57.1826" y2="81.3296" gradientUnits="userSpaceOnUse">
<stop stop-color="#6CEBFC"/>
<stop offset="1" stop-color="#45E6FC"/>
</linearGradient>
<clipPath id="clip0_152_276">
<rect width="66.7042" height="95" fill="white" transform="translate(0.362549)"/>
</clipPath>
</defs>
</svg>
