<svg width="66" height="95" viewBox="0 0 66 95" fill="none" xmlns="http://www.w3.org/2000/svg">
<g clip-path="url(#clip0_152_221)">
<path d="M62.7883 0H2.60104C1.3632 0 0.362549 1.02822 0.362549 2.30017V92.7074C0.362549 93.9794 1.3632 95.0076 2.60104 95.0076H62.7883C64.0262 95.0076 65.0268 93.9794 65.0268 92.7074V2.30017C65.0194 1.02822 64.0187 0 62.7883 0Z" fill="url(#paint0_linear_152_221)"/>
<path d="M58.8377 4.09766H6.54443C5.34365 4.09766 4.36523 5.10303 4.36523 6.34451V81.0923C4.36523 82.3338 5.34365 83.3316 6.54443 83.3316H58.8377C60.0459 83.3316 61.0169 82.3262 61.0169 81.0923V6.34451C61.0169 5.10303 60.0459 4.09766 58.8377 4.09766Z" fill="white"/>
<path d="M43.383 39.636H22.0061C21.0277 39.636 20.2346 38.821 20.2346 37.8156V15.8422C20.2346 14.8368 21.0277 14.0219 22.0061 14.0219H43.383C44.3614 14.0219 45.1545 14.8368 45.1545 15.8422V37.808C45.1545 38.8134 44.3614 39.636 43.383 39.636Z" fill="url(#paint1_linear_152_221)"/>
<path d="M32.6946 92.5475C34.5122 92.5475 35.9856 91.0335 35.9856 89.1658C35.9856 87.2981 34.5122 85.7841 32.6946 85.7841C30.877 85.7841 29.4036 87.2981 29.4036 89.1658C29.4036 91.0335 30.877 92.5475 32.6946 92.5475Z" fill="white"/>
<path d="M51.3216 51.015H14.0604C13.119 51.015 12.3481 50.2229 12.3481 49.2556C12.3481 48.2883 13.119 47.4962 14.0604 47.4962H51.3142C52.2556 47.4962 53.0264 48.2883 53.0264 49.2556C53.0264 50.2229 52.263 51.015 51.3216 51.015Z" fill="url(#paint2_linear_152_221)"/>
<path opacity="0.6" d="M45.0137 60.764H13.4377C12.8373 60.764 12.3555 60.2613 12.3555 59.652V59.5302C12.3555 58.9132 12.8447 58.4182 13.4377 58.4182H45.0137C45.6141 58.4182 46.0959 58.9208 46.0959 59.5302V59.652C46.1033 60.2613 45.6141 60.764 45.0137 60.764Z" fill="url(#paint3_linear_152_221)"/>
<path opacity="0.3" d="M39.0025 66.9562H13.334C12.7929 66.9562 12.3481 66.4992 12.3481 65.9432V65.6081C12.3481 65.0521 12.7929 64.5951 13.334 64.5951H38.9951C39.5362 64.5951 39.9809 65.0521 39.9809 65.6081V65.9432C39.9809 66.4992 39.5362 66.9562 39.0025 66.9562Z" fill="url(#paint4_linear_152_221)"/>
<path opacity="0.6" d="M42.2342 72.6914H13.3932C12.8224 72.6914 12.3555 72.2116 12.3555 71.6251V71.4119C12.3555 70.8254 12.8224 70.3456 13.3932 70.3456H42.2342C42.8049 70.3456 43.2719 70.8254 43.2719 71.4119V71.6251C43.2719 72.204 42.8049 72.6914 42.2342 72.6914Z" fill="url(#paint5_linear_152_221)"/>
<path d="M32.759 26.1208C34.8994 26.1208 36.6344 24.3142 36.6344 22.0854C36.6344 19.8567 34.8994 18.05 32.759 18.05C30.6186 18.05 28.8837 19.8567 28.8837 22.0854C28.8837 24.3142 30.6105 26.1208 32.759 26.1208ZM32.759 28.1385C30.1727 28.1385 25.0083 29.4893 25.0083 32.1739V33.187C25.0083 33.7442 25.4461 34.2 25.9812 34.2H39.553C40.0881 34.2 40.5259 33.7442 40.5259 33.187V32.1739C40.5097 29.4977 35.3453 28.1385 32.759 28.1385Z" fill="white"/>
</g>
<defs>
<linearGradient id="paint0_linear_152_221" x1="4.2799" y1="45.0301" x2="65.1042" y2="50.0402" gradientUnits="userSpaceOnUse">
<stop stop-color="#6CF3FC"/>
<stop offset="1" stop-color="#45FCF1"/>
</linearGradient>
<linearGradient id="paint1_linear_152_221" x1="18.3021" y1="19.2923" x2="47.4001" y2="33.7209" gradientUnits="userSpaceOnUse">
<stop stop-color="#B0F4FF"/>
<stop offset="0.0856277" stop-color="#A3F0FE"/>
<stop offset="0.2972" stop-color="#8AE7FD"/>
<stop offset="0.5161" stop-color="#77E1FD"/>
<stop offset="0.7451" stop-color="#6DDDFC"/>
<stop offset="1" stop-color="#69DCFC"/>
</linearGradient>
<linearGradient id="paint2_linear_152_221" x1="53.03" y1="49.257" x2="12.3551" y2="49.257" gradientUnits="userSpaceOnUse">
<stop stop-color="#6CEBFC"/>
<stop offset="1" stop-color="#45D0FC"/>
</linearGradient>
<linearGradient id="paint3_linear_152_221" x1="46.1012" y1="59.5877" x2="12.355" y2="59.5877" gradientUnits="userSpaceOnUse">
<stop stop-color="#6CEBFC"/>
<stop offset="1" stop-color="#45DBFC"/>
</linearGradient>
<linearGradient id="paint4_linear_152_221" x1="39.9817" y1="65.7799" x2="12.3551" y2="65.7799" gradientUnits="userSpaceOnUse">
<stop stop-color="#6CEBFC"/>
<stop offset="1" stop-color="#45E6FC"/>
</linearGradient>
<linearGradient id="paint5_linear_152_221" x1="43.2713" y1="71.5124" x2="12.355" y2="71.5124" gradientUnits="userSpaceOnUse">
<stop stop-color="#6CFCF3"/>
<stop offset="1" stop-color="#45E6FC"/>
</linearGradient>
<clipPath id="clip0_152_221">
<rect width="64.6568" height="95" fill="white" transform="translate(0.362549)"/>
</clipPath>
</defs>
</svg>
